<?xml version="1.0" encoding="utf-8"?>
<!DOCTYPE svg PUBLIC "-//W3C//DTD SVG 1.1//EN" "http://www.w3.org/Graphics/SVG/1.1/DTD/svg11.dtd">
<svg xmlns="http://www.w3.org/2000/svg" xmlns:xlink="http://www.w3.org/1999/xlink" version="1.1" baseProfile="full" width="1122.6" height="791.505" viewBox="0 0 1122.60 791.50" enable-background="new 0 0 1122.60 791.50" xml:space="preserve">
	<rect x="0" y="0" fill="#0D1139" fill-opacity="1" stroke-linejoin="round" width="1122.6" height="791.505"/>
	<path fill="#72CCD8" fill-opacity="1" stroke-linejoin="round" d="M 642.626,201.45L 641.293,202.779L 639.626,203.777L 637.293,204.774L 634.293,205.439L 632.627,205.771L 630.96,205.439L 628.96,205.106L 626.96,204.442L 624.961,203.444L 622.627,202.115L 608.295,192.474L 589.296,179.177L 564.964,161.891L 563.298,160.229L 561.631,158.567L 559.965,155.907L 559.298,154.245L 558.965,152.251L 558.631,150.256L 558.631,147.929L 558.631,145.602L 559.298,142.943L 560.298,140.283L 561.965,136.959L 566.298,129.646L 572.297,120.67L 585.963,100.392L 597.962,83.4387L 602.962,76.1254L 604.962,74.7957L 607.295,73.466L 610.295,72.4688L 614.295,71.8039L 616.294,71.8039L 618.294,71.8039L 620.628,72.1364L 622.961,72.8011L 625.294,73.7985L 627.627,75.4606L 664.625,100.392L 684.957,114.354L 696.623,122.333L 698.623,124.327L 699.623,125.989L 700.622,127.984L 700.622,129.646L 700.622,130.976L 700.289,132.638L 699.289,134.3L 699.289,134.632L 700.289,134.3L 703.956,132.97L 715.288,128.649L 732.287,122L 731.954,120.006L 730.621,115.352L 729.621,112.36L 728.287,109.7L 726.954,107.041L 725.288,104.714L 722.621,102.055L 718.288,98.7303L 707.622,90.4197L 693.956,79.7821L 620.294,32.9101L 616.961,32.5776L 612.961,32.5776L 608.295,32.9101L 603.295,33.9074L 600.629,34.9047L 597.962,35.902L 595.629,36.8992L 593.296,38.5614L 590.963,40.5559L 588.963,42.5505L 583.297,50.5287L 574.297,63.1608L 551.632,95.7385L 521.967,139.286L 521.3,143.275L 520.967,147.264L 520.967,152.583L 521.634,158.234L 521.967,160.894L 522.967,163.886L 523.967,166.545L 525.633,169.204L 527.3,171.531L 529.633,173.526L 537.633,179.51L 549.965,188.485L 582.297,210.425L 625.294,239.346L 626.627,240.011L 628.294,240.676L 630.294,241.673L 632.96,242.006L 635.96,242.338L 639.293,242.338L 642.959,241.341L 646.626,240.344L 648.959,239.014L 650.626,238.017L 651.959,237.019L 652.625,236.022L 652.959,235.025L 652.959,234.36L 642.626,201.45 Z "/>
	<path fill="#2F499F" fill-opacity="1" stroke-linejoin="round" d="M 712.288,272.921L 710.622,272.921L 708.622,272.921L 705.956,272.256L 703.289,271.259L 701.956,270.262L 700.622,269.265L 699.289,267.602L 697.956,265.94L 696.956,263.946L 695.956,261.619L 690.29,245.33L 682.957,223.057L 673.957,194.801L 673.624,192.474L 673.291,190.147L 673.624,186.823L 673.957,185.161L 674.624,183.499L 675.624,181.504L 676.957,179.842L 678.624,178.18L 680.624,176.185L 683.29,174.523L 686.29,173.194L 694.29,169.869L 704.289,165.88L 727.287,157.902L 755.619,148.594L 757.952,148.927L 760.619,149.259L 763.952,150.256L 767.285,151.918L 768.951,152.916L 770.618,154.245L 772.285,155.907L 773.618,157.902L 774.951,160.229L 775.951,162.888L 790.617,204.774L 798.616,228.044L 802.949,241.341L 803.616,244L 803.283,246.327L 802.949,248.322L 801.949,249.651L 800.949,250.981L 799.95,251.978L 797.95,252.643L 797.95,252.976L 798.95,253.308L 802.283,254.638L 814.282,257.63L 831.948,262.284L 832.614,260.621L 834.614,256.3L 835.281,253.308L 836.281,250.316L 836.614,247.324L 836.614,244.333L 835.947,240.676L 834.614,235.357L 831.281,222.393L 826.615,205.771L 795.616,124.327L 792.95,122L 789.95,119.673L 785.95,117.346L 781.284,115.019L 778.618,114.022L 775.951,113.357L 773.285,113.025L 770.285,112.692L 767.285,113.025L 764.618,113.357L 755.286,116.349L 740.287,121.003L 702.622,133.967L 652.959,150.921L 649.959,153.581L 647.293,156.905L 644.293,160.894L 641.293,165.88L 639.96,168.54L 638.96,171.199L 638.293,174.191L 637.96,177.183L 637.96,180.174L 638.626,183.166L 641.293,192.474L 645.959,207.101L 658.625,244L 675.624,292.867L 676.291,294.196L 677.291,295.858L 678.624,297.521L 680.29,299.515L 682.624,301.51L 685.29,303.504L 688.957,305.166L 692.29,306.164L 694.956,306.829L 696.956,306.829L 698.623,306.829L 699.623,306.496L 700.622,305.831L 700.956,305.499L 712.288,272.921 Z "/>
	<path fill="#72CCD8" fill-opacity="1" stroke-linejoin="round" d="M 725.621,370.322L 723.954,369.324L 722.288,367.995L 720.621,366.333L 719.288,363.673L 718.621,362.011L 718.288,360.349L 718.288,358.354L 718.288,356.36L 718.621,354.033L 719.288,351.374L 724.621,335.085L 731.954,312.812L 741.62,284.888L 742.62,282.894L 743.953,280.899L 746.286,278.572L 747.62,277.243L 749.286,276.245L 750.953,275.581L 753.286,274.916L 755.619,274.251L 758.285,274.251L 761.285,274.251L 764.618,274.916L 772.951,276.91L 783.617,280.235L 806.616,287.548L 826.615,294.196L 834.947,296.856L 836.614,298.518L 838.614,300.512L 840.614,303.172L 842.28,306.496L 842.947,308.491L 843.613,310.485L 843.613,312.812L 843.613,315.139L 843.28,317.799L 842.614,320.458L 828.948,362.676L 821.282,386.278L 816.948,399.575L 815.615,401.902L 814.282,403.564L 812.615,404.894L 811.282,405.559L 809.616,405.891L 808.282,405.891L 806.282,405.559L 805.949,405.559L 806.616,406.556L 808.616,409.548L 815.949,419.188L 827.615,433.483L 829.281,432.485L 833.281,430.158L 835.614,428.496L 838.28,426.502L 840.28,424.175L 841.947,422.18L 843.613,418.523L 845.947,413.537L 850.946,401.237L 857.279,385.281L 881.278,301.51L 880.611,297.853L 879.611,294.196L 877.945,289.875L 875.611,285.221L 873.945,282.894L 872.278,280.899L 870.279,278.905L 868.279,276.91L 865.945,275.248L 862.946,273.918L 853.946,270.594L 839.28,265.94L 801.616,253.308L 751.286,237.352L 747.286,237.684L 743.286,238.681L 738.287,240.011L 732.954,242.338L 730.621,243.668L 727.954,245.33L 725.621,246.992L 723.621,249.319L 721.955,251.646L 720.288,254.305L 716.955,263.613L 711.955,278.24L 699.956,315.139L 684.29,364.338L 683.957,366L 683.624,367.662L 683.624,369.989L 683.624,372.649L 684.29,375.641L 685.623,378.632L 687.29,381.957L 689.29,384.949L 691.29,386.943L 692.956,388.273L 694.29,389.27L 695.289,389.602L 696.289,389.602L 696.956,389.602L 725.621,370.322 Z "/>
	<path fill="#32439B" fill-opacity="1" stroke-linejoin="round" d="M 676.624,458.747L 675.624,456.752L 675.291,455.09L 674.957,452.431L 675.291,449.439L 675.624,448.109L 676.291,446.447L 677.291,444.785L 678.624,443.123L 680.29,441.128L 682.29,439.466L 695.956,429.161L 714.955,415.532L 738.953,398.246L 740.953,396.916L 743.286,395.919L 746.286,395.254L 748.286,395.254L 749.953,395.254L 751.953,395.586L 754.286,396.251L 756.286,397.248L 758.619,398.91L 760.952,400.572L 763.618,402.899L 768.951,409.548L 775.951,417.859L 790.617,437.472L 808.282,461.406L 808.949,463.733L 809.282,466.393L 809.282,469.384L 808.949,473.374L 808.282,475.368L 807.616,477.363L 806.282,479.357L 804.949,481.019L 803.283,483.014L 800.949,485.008L 765.285,511.603L 745.953,526.562L 734.287,534.872L 731.954,536.202L 729.954,536.867L 727.954,536.867L 726.288,536.534L 724.954,535.87L 723.621,535.205L 722.288,533.543L 721.955,533.875L 721.955,534.54L 721.955,538.529L 722.288,550.496L 723.621,568.78L 725.288,569.112L 730.287,569.445L 733.287,569.445L 736.287,569.112L 739.287,568.447L 741.953,567.782L 745.286,565.788L 749.953,563.128L 761.285,555.815L 775.618,546.175L 843.613,491.657L 845.28,488.333L 846.28,484.676L 847.613,480.355L 848.28,475.036L 848.28,472.376L 848.28,469.717L 847.947,466.725L 846.947,464.066L 845.947,461.406L 844.613,458.747L 838.947,450.769L 829.614,438.137L 805.949,406.556L 774.284,364.338L 770.618,362.676L 766.952,361.014L 761.952,359.352L 756.619,358.022L 753.619,357.69L 750.619,357.69L 747.62,358.022L 744.62,358.354L 741.953,359.352L 739.287,360.681L 730.954,366.333L 718.621,375.308L 687.29,398.91L 645.959,430.158L 644.959,431.156L 643.626,432.485L 642.293,434.147L 640.96,436.474L 639.626,439.134L 638.96,442.458L 638.293,446.447L 638.293,449.771L 638.626,452.763L 639.293,454.758L 639.96,456.087L 640.626,457.085L 641.293,457.75L 641.96,458.082L 676.624,458.747 Z "/>
	<path fill="#72CCD8" fill-opacity="1" stroke-linejoin="round" d="M 584.63,501.297L 585.296,499.303L 585.963,497.308L 586.963,495.314L 588.963,492.987L 590.296,491.989L 591.629,490.992L 593.629,490.327L 595.629,489.662L 597.962,488.998L 600.629,488.998L 617.628,488.333L 641.293,488.333L 670.958,488L 673.291,488.333L 675.624,488.998L 678.624,489.995L 679.957,490.992L 681.624,492.322L 682.957,493.652L 684.29,495.314L 685.623,497.641L 686.623,499.968L 687.29,502.959L 687.957,506.284L 688.623,514.927L 689.29,525.564L 689.956,550.164L 690.29,570.774L 690.29,579.75L 689.623,582.077L 688.29,584.404L 686.623,587.063L 683.957,589.722L 682.29,591.052L 680.624,592.049L 678.624,593.047L 676.291,594.044L 673.624,594.376L 670.958,594.709L 626.294,596.039L 601.629,596.703L 587.63,596.703L 584.963,596.371L 582.63,595.706L 580.963,594.709L 579.963,593.379L 578.964,592.049L 578.63,590.72L 578.297,588.725L 577.964,588.725L 577.297,589.39L 575.297,592.382L 568.631,602.687L 558.965,617.979L 560.298,619.308L 563.964,622.3L 566.298,623.962L 568.964,625.624L 571.631,626.954L 574.63,627.951L 578.297,628.284L 583.63,628.616L 597.296,629.281L 614.295,629.946L 701.622,624.96L 704.622,622.965L 707.622,620.97L 711.289,617.979L 714.955,613.99L 716.622,611.995L 717.955,609.668L 719.288,607.009L 720.288,604.349L 721.288,601.69L 721.621,598.698L 721.621,588.725L 721.288,573.434L 720.621,533.875L 718.955,481.019L 717.288,477.695L 715.288,474.038L 712.288,469.717L 708.289,465.728L 706.289,463.733L 703.956,462.071L 701.289,460.409L 698.623,459.079L 695.623,458.414L 692.623,457.75L 682.957,457.75L 667.625,457.75L 628.294,458.747L 576.63,460.409L 574.964,460.409L 573.297,460.741L 571.297,461.406L 568.631,462.736L 565.964,464.066L 563.298,466.393L 560.965,469.052L 558.965,472.044L 557.632,474.371L 556.632,476.365L 556.298,478.028L 556.298,479.025L 556.632,480.022L 556.965,480.687L 584.63,501.297 Z "/>
	<path fill="#32439B" fill-opacity="1" stroke-linejoin="round" d="M 479.303,483.679L 480.97,482.682L 482.636,481.352L 484.636,480.355L 487.636,479.69L 489.302,479.69L 490.969,479.69L 492.969,480.355L 494.969,481.019L 497.302,481.684L 499.302,483.014L 513.634,492.987L 532.633,506.616L 556.632,523.902L 558.631,525.232L 560.298,527.227L 561.631,529.886L 562.298,531.548L 562.964,533.543L 563.298,535.537L 563.298,537.532L 562.964,540.191L 562.298,542.85L 561.298,545.51L 559.965,548.502L 555.298,555.815L 549.632,565.123L 535.633,585.068L 518.634,609.336L 516.634,610.665L 514.301,611.995L 510.968,612.992L 507.301,613.657L 505.301,613.657L 503.302,613.657L 500.968,613.325L 498.635,612.66L 496.302,611.33L 493.969,610L 456.971,584.736L 436.639,570.774L 425.307,562.796L 423.307,560.801L 421.973,559.139L 421.307,557.145L 420.973,555.483L 421.307,554.153L 421.64,552.491L 422.64,550.829L 422.307,550.496L 421.64,550.829L 417.974,551.826L 406.641,556.148L 389.642,563.128L 389.975,565.123L 390.975,569.777L 391.975,572.436L 393.309,575.428L 394.642,578.088L 396.308,580.415L 399.308,582.742L 403.308,586.398L 413.641,594.709L 427.64,605.346L 500.968,652.551L 504.302,652.883L 508.301,652.883L 512.968,652.551L 517.967,651.554L 520.634,650.889L 523.3,649.891L 525.967,648.562L 528.3,646.9L 530.633,644.905L 532.633,642.911L 538.299,634.932L 547.299,622.3L 569.964,590.055L 599.962,546.507L 600.629,542.518L 600.962,538.529L 600.962,533.21L 600.295,527.891L 599.629,524.9L 598.962,522.24L 597.962,519.248L 596.296,516.589L 594.629,514.262L 592.296,512.267L 584.63,506.284L 571.964,497.308L 539.633,475.036L 496.969,446.115L 495.635,445.45L 493.969,444.453L 491.969,443.788L 489.302,443.123L 486.303,443.123L 482.636,443.123L 478.97,443.788L 475.637,445.117L 473.303,446.115L 471.304,447.444L 470.304,448.442L 469.637,449.439L 469.304,450.104L 468.97,450.769L 479.303,483.679 Z "/>
	<path fill="#72CCD8" fill-opacity="1" stroke-linejoin="round" d="M 409.974,412.207L 411.974,412.207L 413.974,412.207L 416.307,412.872L 418.974,413.869L 420.307,414.867L 421.64,415.864L 422.973,417.526L 424.307,419.188L 425.307,421.183L 426.306,423.51L 431.973,439.799L 438.972,462.071L 447.972,490.327L 448.638,492.654L 448.638,495.314L 448.305,498.306L 447.972,499.968L 447.305,501.63L 446.305,503.624L 444.972,505.286L 443.305,507.281L 441.306,508.943L 438.639,510.605L 435.639,511.935L 427.64,515.259L 417.64,519.248L 394.308,527.227L 374.643,533.543L 366.31,536.202L 363.644,536.202L 360.977,535.537L 357.977,534.54L 354.644,532.878L 352.978,531.88L 351.311,530.551L 349.645,528.889L 348.311,526.894L 346.978,524.567L 345.978,521.908L 331.646,479.69L 323.646,456.752L 319.313,443.123L 318.647,440.464L 318.98,438.469L 319.313,436.474L 320.313,434.812L 321.313,433.815L 322.313,432.818L 324.313,431.82L 323.313,431.488L 319.98,430.158L 307.981,426.834L 290.315,422.18L 289.648,423.842L 287.649,428.496L 286.649,431.156L 285.982,434.147L 285.649,437.139L 285.649,440.131L 286.315,443.788L 287.649,449.107L 290.982,462.071L 295.648,478.692L 325.979,560.469L 328.646,562.796L 331.979,564.791L 335.646,567.45L 340.312,569.777L 342.978,570.774L 345.645,571.439L 348.645,571.771L 351.311,572.104L 354.311,572.104L 357.311,571.439L 366.644,568.447L 381.309,563.793L 418.974,551.161L 468.97,534.207L 471.97,531.548L 474.637,528.556L 477.637,524.567L 480.636,519.581L 481.97,516.921L 482.97,514.262L 483.636,511.27L 483.969,508.278L 483.969,505.286L 483.636,502.295L 480.636,492.987L 475.97,478.36L 463.637,441.128L 446.639,392.262L 445.972,390.932L 445.305,389.602L 443.972,387.608L 442.305,385.613L 439.972,383.619L 436.972,381.624L 433.639,379.962L 430.306,378.965L 427.64,378.3L 425.307,378.3L 423.973,378.3L 422.64,378.632L 421.973,379.297L 421.307,379.63L 409.974,412.207 Z "/>
	<path fill="#32439B" fill-opacity="1" stroke-linejoin="round" d="M 397.308,314.807L 398.642,315.804L 400.308,317.134L 401.975,318.796L 403.308,321.455L 403.975,323.117L 404.308,324.78L 404.641,326.774L 404.308,328.769L 403.975,331.096L 403.308,333.755L 397.975,350.044L 390.309,371.984L 380.643,399.908L 379.643,402.235L 378.309,404.229L 375.976,406.556L 374.643,407.553L 372.976,408.551L 371.31,409.548L 368.977,410.213L 366.644,410.545L 363.977,410.545L 360.977,410.545L 357.644,409.88L 349.311,407.886L 338.979,404.562L 315.647,397.248L 295.981,390.6L 287.649,387.608L 285.649,385.946L 283.982,383.951L 281.982,381.624L 280.316,377.968L 279.649,376.305L 278.982,373.978L 278.649,371.984L 278.982,369.324L 279.316,366.998L 279.982,364.338L 293.648,321.788L 301.314,298.518L 305.981,285.221L 306.981,282.894L 308.647,280.899L 309.98,279.902L 311.647,279.237L 313.314,278.905L 314.647,278.572L 316.647,279.237L 316.98,278.905L 316.313,278.24L 314.314,275.248L 306.981,265.275L 295.648,250.981L 293.648,251.978L 289.648,254.638L 287.315,256.3L 284.982,257.962L 282.649,260.289L 280.982,262.616L 279.316,265.94L 276.983,270.927L 271.983,283.226L 265.65,299.183L 240.985,382.954L 241.651,386.278L 242.651,389.935L 244.318,394.256L 246.984,398.91L 248.318,401.237L 249.984,403.564L 251.984,405.559L 253.984,407.553L 256.65,409.216L 259.317,410.545L 268.316,413.869L 282.982,418.856L 320.646,431.156L 370.977,447.777L 374.976,447.112L 378.976,446.447L 383.976,444.785L 388.975,442.79L 391.642,441.461L 394.308,439.799L 396.642,437.804L 398.642,435.81L 400.308,433.483L 401.975,430.823L 405.308,421.515L 410.307,406.889L 422.64,369.989L 438.639,320.79L 438.972,319.128L 438.972,317.466L 439.306,315.139L 438.972,312.48L 438.306,309.488L 437.306,306.496L 435.639,303.172L 433.306,300.18L 431.639,298.185L 429.973,296.856L 428.64,295.858L 427.64,295.526L 426.64,295.526L 425.973,295.526L 397.308,314.807 Z "/>
	<path fill="#72CCD8" fill-opacity="1" stroke-linejoin="round" d="M 446.639,226.714L 447.305,228.376L 447.972,230.371L 447.972,232.698L 447.638,235.69L 447.305,237.352L 446.639,239.014L 445.639,240.676L 444.305,242.338L 442.972,244L 440.972,245.662L 426.973,255.967L 407.974,269.597L 383.976,286.883L 381.976,288.213L 379.643,288.878L 376.31,289.542L 374.643,289.875L 372.643,289.542L 370.643,289.21L 368.643,288.545L 366.31,287.548L 363.977,286.218L 361.644,284.224L 359.311,281.897L 353.644,275.248L 346.978,266.938L 332.312,247.324L 314.98,223.39L 314.314,221.063L 313.98,218.403L 313.647,215.079L 314.314,211.422L 314.98,209.428L 315.647,207.433L 316.647,205.439L 318.313,203.444L 319.98,201.782L 322.313,199.788L 357.977,173.194L 377.643,158.234L 388.975,149.924L 391.309,148.927L 393.642,148.262L 395.308,148.262L 397.308,148.594L 398.642,148.927L 399.641,149.924L 401.308,151.254L 401.641,150.256L 401.641,146.6L 400.975,134.632L 399.975,116.349L 397.975,116.016L 393.309,115.684L 390.309,115.684L 387.309,116.016L 384.309,116.349L 381.643,117.346L 378.309,119.008L 373.643,122L 362.31,128.981L 347.978,138.621L 279.316,192.807L 277.982,196.131L 276.983,199.788L 275.649,204.442L 274.983,209.428L 274.983,212.087L 274.983,215.079L 275.316,217.739L 275.983,220.398L 276.983,223.39L 278.649,225.717L 283.982,233.695L 293.315,246.327L 316.98,278.24L 348.645,320.458L 351.978,322.12L 355.978,323.782L 360.644,325.444L 366.31,326.774L 368.977,327.106L 371.977,327.439L 374.976,327.106L 377.976,326.442L 380.643,325.444L 383.642,324.115L 391.642,318.796L 404.308,309.82L 435.639,286.551L 476.97,255.303L 477.97,254.305L 479.303,252.976L 480.636,250.981L 481.97,248.987L 483.303,245.995L 484.303,242.67L 484.636,239.014L 484.636,235.357L 484.303,232.698L 483.636,230.703L 483.303,229.373L 482.303,228.376L 481.97,227.711L 481.303,227.379L 446.639,226.714 Z "/>
	<path fill="#32439B" fill-opacity="1" stroke-linejoin="round" d="M 538.633,184.496L 537.966,186.158L 537.299,188.153L 536.299,190.147L 534.3,192.474L 532.966,193.472L 531.3,194.469L 529.633,195.134L 527.633,195.799L 525.3,196.463L 522.634,196.796L 505.635,197.128L 481.97,197.128L 452.305,197.128L 449.972,197.128L 447.638,196.463L 444.639,195.134L 443.305,194.136L 441.639,193.139L 440.306,191.477L 438.972,189.815L 437.639,187.488L 436.639,185.161L 435.973,182.169L 435.306,178.845L 434.639,170.202L 433.973,159.564L 433.306,135.297L 433.306,114.354L 433.306,105.711L 433.973,103.384L 435.306,100.725L 436.972,98.0654L 439.639,95.4061L 441.306,94.0764L 442.972,93.0791L 444.972,92.0818L 447.305,91.417L 449.972,90.7521L 452.638,90.4197L 497.302,89.4224L 521.967,88.7576L 536.299,88.7576L 538.966,89.09L 540.966,89.7548L 542.632,91.0846L 543.632,92.0818L 544.632,93.4115L 544.966,94.7412L 545.299,97.0682L 545.632,97.0682L 546.299,96.4033L 548.299,93.4115L 554.965,83.1063L 564.964,67.8148L 563.298,66.485L 559.631,63.1608L 557.298,61.4987L 554.632,59.8366L 551.965,58.5068L 549.299,57.842L 545.632,57.1772L 539.966,56.8447L 526.633,56.1799L 509.301,55.5151L 421.973,60.1689L 418.974,62.1635L 415.974,64.1581L 412.307,67.1499L 408.641,71.139L 406.974,73.1335L 405.641,75.4606L 404.308,78.12L 403.308,80.7794L 402.641,83.4387L 402.308,86.4306L 401.975,96.0709L 402.308,111.695L 402.975,151.254L 403.975,204.109L 405.974,207.433L 407.974,211.09L 410.974,215.079L 414.641,219.401L 416.974,221.395L 419.307,223.057L 421.64,224.719L 424.307,226.049L 427.306,226.714L 430.306,227.379L 440.306,227.711L 455.638,227.379L 494.635,226.714L 546.632,225.384L 547.965,225.052L 549.632,224.719L 551.965,224.055L 554.298,223.057L 556.965,221.395L 559.631,219.401L 562.298,216.741L 564.298,213.749L 565.631,211.422L 566.298,209.428L 566.631,207.766L 566.631,206.436L 566.631,205.771L 566.298,205.106L 538.633,184.496 Z "/>
	<text transform="matrix(1.0000000000000000 0.0000000000000000 0.0000000000000000 1.0000000000000000 458.00 391.00)" xml:space="preserve">
		<tspan style=" font-family:AXIS Extra Bold; font-size:109.700340pt;font-weight:Bold;" letter-spacing="0.00em" fill="#31459A" fill-opacity="1" stroke-linejoin="round">PT</tspan>
	</text>
	<text transform="matrix(1.0000000000000000 0.0000000000000000 0.0000000000000000 1.0000000000000000 231.00 715.00)" xml:space="preserve">
		<tspan style=" font-family:AXIS Extra Bold; font-size:30.915550pt;font-weight:Bold;" letter-spacing="0.00em" fill="#72CCD8" fill-opacity="1" stroke-linejoin="round">BE</tspan>
	</text>
	<text transform="matrix(1.0000000000000000 0.0000000000000000 0.0000000000000000 1.0000000000000000 288.00 715.00)" xml:space="preserve">
		<tspan style=" font-family:AXIS Extra Bold; font-size:30.915550pt;font-weight:Bold;" letter-spacing="0.00em" fill="#72CCD8" fill-opacity="1" stroke-linejoin="round">S</tspan>
	</text>
	<text transform="matrix(1.0000000000000000 0.0000000000000000 0.0000000000000000 1.0000000000000000 314.00 715.00)" xml:space="preserve">
		<tspan style=" font-family:AXIS Extra Bold; font-size:30.915550pt;font-weight:Bold;" letter-spacing="0.00em" fill="#72CCD8" fill-opacity="1" stroke-linejoin="round">T</tspan>
	</text>
	<text transform="matrix(1.0000000000000000 0.0000000000000000 0.0000000000000000 1.0000000000000000 354.00 715.00)" xml:space="preserve">
		<tspan style=" font-family:AXIS Extra Bold; font-size:30.915550pt;font-weight:Bold;" letter-spacing="0.00em" fill="#72CCD8" fill-opacity="1" stroke-linejoin="round">A</tspan>
	</text>
	<text transform="matrix(1.0000000000000000 0.0000000000000000 0.0000000000000000 1.0000000000000000 386.00 715.00)" xml:space="preserve">
		<tspan style=" font-family:AXIS Extra Bold; font-size:30.915550pt;font-weight:Bold;" letter-spacing="0.00em" fill="#72CCD8" fill-opacity="1" stroke-linejoin="round">U</tspan>
	</text>
	<text transform="matrix(1.0000000000000000 0.0000000000000000 0.0000000000000000 1.0000000000000000 417.00 715.00)" xml:space="preserve">
		<tspan style=" font-family:AXIS Extra Bold; font-size:30.915550pt;font-weight:Bold;" letter-spacing="0.00em" fill="#72CCD8" fill-opacity="1" stroke-linejoin="round">T</tspan>
	</text>
	<text transform="matrix(1.0000000000000000 0.0000000000000000 0.0000000000000000 1.0000000000000000 445.00 715.00)" xml:space="preserve">
		<tspan style=" font-family:AXIS Extra Bold; font-size:30.915550pt;font-weight:Bold;" letter-spacing="0.00em" fill="#72CCD8" fill-opacity="1" stroke-linejoin="round">OM</tspan>
	</text>
	<text transform="matrix(1.0000000000000000 0.0000000000000000 0.0000000000000000 1.0000000000000000 518.00 715.00)" xml:space="preserve">
		<tspan style=" font-family:AXIS Extra Bold; font-size:30.915550pt;font-weight:Bold;" letter-spacing="0.00em" fill="#72CCD8" fill-opacity="1" stroke-linejoin="round">A</tspan>
	</text>
	<text transform="matrix(1.0000000000000000 0.0000000000000000 0.0000000000000000 1.0000000000000000 548.00 715.00)" xml:space="preserve">
		<tspan style=" font-family:AXIS Extra Bold; font-size:30.915550pt;font-weight:Bold;" letter-spacing="0.00em" fill="#72CCD8" fill-opacity="1" stroke-linejoin="round">TION SO</tspan>
	</text>
	<text transform="matrix(1.0000000000000000 0.0000000000000000 0.0000000000000000 1.0000000000000000 726.00 715.00)" xml:space="preserve">
		<tspan style=" font-family:AXIS Extra Bold; font-size:30.915550pt;font-weight:Bold;" letter-spacing="0.00em" fill="#72CCD8" fill-opacity="1" stroke-linejoin="round">L</tspan>
	</text>
	<text transform="matrix(1.0000000000000000 0.0000000000000000 0.0000000000000000 1.0000000000000000 750.00 715.00)" xml:space="preserve">
		<tspan style=" font-family:AXIS Extra Bold; font-size:30.915550pt;font-weight:Bold;" letter-spacing="0.00em" fill="#72CCD8" fill-opacity="1" stroke-linejoin="round">UTION</tspan>
	</text>
</svg>
